# ProBuilder 5.0.7
# https://unity3d.com/unity/features/worldbuilding/probuilder
# 6/27/2023 5:02:47 PM

mtllib ./Projectile_2.mtl
o Projectile 2

g Cube
v -0.15 -0.15 0.181807
v -0.15 -0.15 -0.1181931
v -0.15 0 -0.1181931
v -0.15 0 0.181807
v -0.15 0.15 -0.1181931
v -0.15 0.15 0.181807
v 0.15 -0.15 -0.1181931
v 0.15 -0.15 0.181807
v 0.15 0 0.181807
v 0.15 0 -0.1181931
v 0.15 0.15 0.181807
v 0.15 0.15 -0.1181931
v 0 0 -0.625
v 0 0 0.625
v 0 0.15 0.181807
v 0 0.15 -0.1181931
v 0 -0.15 -0.1181931
v 0 -0.15 0.181807

vt 0.181807 -0.15
vt -0.1181931 -0.15
vt -0.1181931 0
vt 0.181807 0
vt -0.1181931 0.15
vt 0.181807 0.15
vt 0.1181931 -0.15
vt -0.181807 -0.15
vt -0.181807 0
vt 0.1181931 0
vt -0.181807 0.15
vt 0.1181931 0.15
vt -0.07076314 0.15
vt -0.07076314 0
vt -0.599302 0
vt -0.07076314 -0.15
vt 0.07076314 -0.15
vt 0.07076314 0
vt 0.599302 0
vt 0.07076314 0.15
vt -0.1241226 0.15
vt -0.1241226 0
vt -0.5920116 0
vt -0.1241226 -0.15
vt 0.1241226 -0.15
vt 0.1241226 0
vt 0.5920116 0
vt 0.1241226 0.15
vt -0.15 0.181807
vt 0 0.181807
vt 0 -0.1181931
vt -0.15 -0.1181931
vt 0.15 0.181807
vt 0.15 -0.1181931
vt -0.15 -0.07076314
vt 0 -0.07076314
vt 0 -0.599302
vt 0.15 -0.07076314
vt 0.15 0.1241226
vt 0 0.1241226
vt 0 0.5920116
vt -0.15 0.1241226

vn -1 0 0
vn 1 0 0
vn -0.9588832 0 -0.2838013
vn 0.9588832 0 -0.2838013
vn 0.9472185 0 0.3205889
vn -0.9472185 0 0.3205889
vn 0 1 0
vn 0 -1 0
vn 0 -0.9588832 -0.2838013
vn 0 0.9588832 -0.2838013
vn 0 -0.9472185 0.3205889
vn 0 0.9472185 0.3205889

usemtl Building_Material
f 13/15/3 3/14/3 5/13/3
f 3/14/3 13/15/3 2/16/3
f 7/17/4 13/19/4 10/18/4
f 12/20/4 10/18/4 13/19/4
f 14/23/5 9/22/5 11/21/5
f 14/23/5 8/24/5 9/22/5
f 4/26/6 1/25/6 14/27/6
f 6/28/6 4/26/6 14/27/6
f 2/35/9 13/37/9 17/36/9
f 17/36/9 13/37/9 7/38/9
f 12/35/10 13/37/10 16/36/10
f 16/36/10 13/37/10 5/38/10
f 18/40/11 8/39/11 14/41/11
f 18/40/11 14/41/11 1/42/11
f 6/39/12 14/41/12 15/40/12
f 14/41/12 11/42/12 15/40/12
f 3/3/1 2/2/1 1/1/1
f 1/1/1 4/4/1 3/3/1
f 5/5/1 3/3/1 4/4/1
f 4/4/1 6/6/1 5/5/1
f 10/10/2 9/9/2 8/8/2
f 8/8/2 7/7/2 10/10/2
f 12/12/2 11/11/2 9/9/2
f 9/9/2 10/10/2 12/12/2
f 11/29/7 12/32/7 16/31/7
f 16/31/7 15/30/7 11/29/7
f 15/30/7 16/31/7 5/34/7
f 5/34/7 6/33/7 15/30/7
f 8/33/8 18/30/8 17/31/8
f 17/31/8 7/34/8 8/33/8
f 18/30/8 1/29/8 2/32/8
f 2/32/8 17/31/8 18/30/8

